<svg width="25" height="25" viewBox="0 0 25 25" fill="none" xmlns="http://www.w3.org/2000/svg">
<g clip-path="url(#clip0_22_1273)">
<path d="M20.8333 4.16667H4.16667C3.02083 4.16667 2.08333 5.10417 2.08333 6.25V18.75C2.08333 19.8958 3.02083 20.8333 4.16667 20.8333H20.8333C21.9792 20.8333 22.9167 19.8958 22.9167 18.75V6.25C22.9167 5.10417 21.9792 4.16667 20.8333 4.16667ZM20.8333 18.75H4.16667V6.25H20.8333V18.75ZM4.16667 0H20.8333V2.08333H4.16667V0ZM4.16667 22.9167H20.8333V25H4.16667V22.9167ZM12.5 12.5C13.9375 12.5 15.1042 11.3333 15.1042 9.89583C15.1042 8.45833 13.9375 7.29167 12.5 7.29167C11.0625 7.29167 9.89583 8.45833 9.89583 9.89583C9.89583 11.3333 11.0625 12.5 12.5 12.5ZM12.5 8.85417C13.0729 8.85417 13.5417 9.32292 13.5417 9.89583C13.5417 10.4688 13.0729 10.9375 12.5 10.9375C11.9271 10.9375 11.4583 10.4688 11.4583 9.89583C11.4583 9.32292 11.9271 8.85417 12.5 8.85417ZM17.7083 16.6562C17.7083 14.4792 14.2604 13.5417 12.5 13.5417C10.7396 13.5417 7.29167 14.4792 7.29167 16.6562V17.7083H17.7083V16.6562ZM9.17708 16.1458C9.8125 15.6042 11.2917 15.1042 12.5 15.1042C13.7188 15.1042 15.1979 15.6042 15.8333 16.1458H9.17708Z" fill="white" fill-opacity="0.8"/>
</g>
<defs>
<clipPath id="clip0_22_1273">
<rect width="25" height="25" fill="white"/>
</clipPath>
</defs>
</svg>
