<svg width="431" height="189" viewBox="0 0 431 189" fill="none" xmlns="http://www.w3.org/2000/svg">
<path d="M14.4125 79H1.25V0.249995C13.85 0.249995 27.9125 0.249995 40.5125 0.249995C53.7875 0.249995 55.925 10.825 50.1875 18.8125C46.25 23.9875 42.7625 28.0375 39.275 32.2C34.8875 37.4875 32.975 43.5625 39.5 42.2125C42.875 41.65 46.1375 39.85 49.4 39.0625C54.575 37.9375 57.8375 38.6125 59.8625 40.8625C63.6875 45.025 62 54.1375 56.4875 63.025C52.2125 69.775 46.3625 76.075 42.0875 79H21.1625C29.375 73.9375 49.0625 59.0875 53.9 50.9875C55.8125 48.0625 56.6 45.25 55.925 43.1125C55.475 41.2 53.5625 40.1875 50.075 40.8625C46.5875 41.425 43.55 43.225 40.175 44.35C25.4375 48.625 18.4625 38.5 29.2625 25.5625C33.3125 20.725 35.45 18.025 38.375 14.2C43.1 8.12499 42.65 2.38749 35.225 2.38749H21.8375C17.7875 2.38749 14.4125 5.875 14.4125 9.8125V79ZM71.123 79V0.249995C86.7605 0.249995 103.973 0.249995 119.723 0.249995L122.198 15.4375C110.611 16.45 100.261 2.38749 91.7105 2.38749C87.6605 2.38749 84.2855 5.875 84.2855 9.8125V28.825C87.323 25.675 93.2855 27.25 98.348 28.375C103.636 29.5 108.473 29.95 113.648 27.5875L116.461 42.325C105.998 42.775 103.523 40.4125 95.0855 33.4375C91.7105 30.7375 86.873 27.3625 84.2855 31.525V76.975H85.8605C100.598 76.975 102.398 62.125 124.786 63.5875L121.298 79C107.461 74.275 105.211 79 88.673 79H71.123ZM134.182 79V11.5C134.182 4.075 136.319 0.249995 141.607 0.249995C161.407 0.249995 167.482 48.4 181.319 59.0875C183.907 61 186.044 59.7625 186.044 56.725V46.375C186.044 28.9375 173.107 15.775 173.107 0.249995H188.069V79C159.494 79 159.494 32.9875 146.444 11.05C142.507 4.52499 136.207 3.7375 136.207 12.5125V18.7C136.207 36.1375 149.144 48.9625 149.144 79H134.182ZM201.641 79V0.249995C217.278 0.249995 234.491 0.249995 250.241 0.249995L252.716 15.4375C241.128 16.45 230.778 2.38749 222.228 2.38749C218.178 2.38749 214.803 5.875 214.803 9.8125V28.825C217.841 25.675 223.803 27.25 228.866 28.375C234.153 29.5 238.991 29.95 244.166 27.5875L246.978 42.325C236.516 42.775 234.041 40.4125 225.603 33.4375C222.228 30.7375 217.391 27.3625 214.803 31.525V76.975H216.378C231.116 76.975 232.916 62.125 255.303 63.5875L251.816 79C237.978 74.275 235.728 79 219.191 79H201.641ZM294.737 0.249995L321.85 79H307.675C303.512 66.5125 290.912 57.625 277.975 57.625H271.9C272.8 64.4875 275.275 70.675 277.975 79H261.55C256.375 65.1625 265.375 48.175 271.225 34.7875L281.35 11.5C282.7 8.2375 280.45 3.39999 277.75 0.249995H294.737ZM299.687 55.6L287.987 21.5125C286.75 17.4625 282.587 14.875 279.662 21.7375L278.875 23.425C272.687 37.9375 271 47.1625 271.675 55.6H299.687ZM410.427 0.362493H423.589V79H410.427V42.325C410.427 39.2875 409.864 36.7 408.402 35.35C406.377 33.325 404.014 33.325 401.877 34.45C398.164 36.25 394.677 40.4125 392.427 42.55C390.064 44.6875 387.252 46.2625 381.514 46.2625V79H368.352C368.352 58.6375 368.352 38.1625 368.352 17.8C368.352 9.13749 363.852 2.38749 354.514 2.38749H351.027V79H337.977V2.38749H334.377C326.052 2.38749 328.864 18.475 313.677 18.475L315.027 0.362493H366.664C377.352 0.362493 381.514 5.2 381.514 15.325C381.514 22.8625 381.514 30.4 381.514 38.05C388.377 39.85 393.889 29.3875 402.664 29.8375C406.152 29.95 408.964 31.6375 410.427 36.1375V0.362493ZM11 187H0.125V121.375H27.9688C39.3125 121.375 47.0938 132.344 40.7188 143.406C37.625 148.656 25.5313 174.25 11 158.406V187ZM11 129.437V156.25C19.3438 164.312 28.25 145.562 31.9063 139.187C36.3125 131.594 32.8438 123.156 23.4688 123.156H17.1875C13.7188 123.156 11 126.062 11 129.437ZM165.238 154.281C165.238 159.719 164.019 164.781 161.675 169.375C151.644 188.781 128.113 187 120.144 187.094H101.019C94.5503 187.094 88.5503 185.031 84.894 181.187C81.7065 177.625 80.4878 172.75 82.644 166.375C84.6128 160.844 83.3003 158.969 78.519 160C75.144 160.75 70.4565 161.125 68.3003 157.75C65.5815 153.625 68.4878 148.469 71.3003 145.375C74.9565 141.625 79.644 136.281 82.1753 133.094C86.1128 128.031 86.1128 123.156 79.7378 123.156H67.269C63.894 123.156 61.0815 126.062 61.0815 129.344V187H50.1128V121.469H84.2378C95.394 121.469 97.0815 130.187 92.3003 136.844C88.9253 141.156 82.269 148.187 79.1753 151.375C74.769 155.781 75.7065 158.875 80.4878 158.312C85.4565 157.75 88.0815 158.406 89.5815 160.094C90.9878 161.687 91.4565 163.937 91.5503 166.75C91.8315 172.281 93.894 176.219 97.269 179.031C103.738 184.281 115.55 185.312 123.613 185.125C131.957 185.031 140.582 183.531 146.863 179.219C152.863 175.187 155.582 169 155.957 162.25C156.332 155.875 154.457 148.937 151.269 143.406C142.738 128.5 127.363 121.281 116.957 127.281C106.644 133.281 105.144 150.25 113.675 165.156C118.269 173.031 124.644 178.75 131.3 181.469C129.894 181.562 128.394 181.562 126.988 181.562C123.238 181.75 118.55 181.844 113.863 181.281C105.332 175.375 99.8003 165.437 99.8003 154.281C99.8003 136.187 114.425 121.469 132.425 121.469C150.613 121.469 165.238 136.187 165.238 154.281ZM198.86 187H187.985V123.156H184.985C178.048 123.156 180.392 136.562 167.735 136.562L168.86 121.469H217.892L219.204 136.562C206.454 136.562 208.704 123.156 201.767 123.156H198.86V187ZM264.164 137.219C261.539 145 262.945 155.5 268.383 165.156C276.82 179.687 296.601 186.156 309.445 176.5L310.383 177.437C304.57 183.437 296.32 187.094 287.226 187.094C269.133 187.094 254.508 172.375 254.508 154.281C254.508 146.875 256.945 140.031 261.07 134.594C262.101 135.344 263.133 136.281 264.164 137.219ZM304.664 139.469C296.695 136.281 294.914 131.594 289.008 128.406C285.164 126.25 281.226 125.125 277.476 125.5C276.726 124.844 275.976 124.281 275.133 123.812C278.883 122.312 283.101 121.469 287.226 121.469C290.601 121.469 293.883 121.937 296.976 122.875C301.945 124.562 304.289 125.406 310.008 125.594L304.664 139.469ZM254.789 121.375C272.976 121.375 287.601 136.187 287.601 154.281C287.601 161.312 285.445 167.781 281.695 173.125C280.476 172.375 279.351 171.625 278.226 170.687C280.476 163 279.07 152.687 273.633 143.406C265.101 128.5 249.726 121.281 239.32 127.281C229.008 133.281 227.508 150.25 236.039 165.156C243.164 177.437 254.976 184.469 264.726 183.062C265.383 183.719 266.133 184.281 266.976 184.844C263.32 186.156 259.101 187 254.789 187C236.789 187 222.07 172.375 222.07 154.281C222.07 136.187 236.789 121.375 254.789 121.375ZM377.048 154.281C377.048 172.375 362.33 187 344.236 187C326.142 187 311.517 172.375 311.517 154.281C311.517 136.187 326.142 121.375 344.236 121.375C362.33 121.375 377.048 136.187 377.048 154.281ZM359.798 181.187C370.298 175.187 371.611 158.312 363.08 143.406C354.548 128.594 339.173 121.281 328.673 127.281C318.267 133.281 316.767 150.25 325.486 165.156C334.017 179.969 349.392 187.188 359.798 181.187ZM399.816 187H385.379V121.375H396.348V185.312H397.66C409.941 185.312 411.254 172.937 430.098 174.156L427.098 187C415.66 183.062 413.785 187 399.816 187Z" fill="#D01C44"/>
</svg>
